<svg xmlns="http://www.w3.org/2000/svg" viewBox="0 0 168 168" aria-label="Spotify Clone">
  <circle cx="84" cy="84" r="84" fill="#1ED760"/>
  <path fill="#000" d="M122.4 121.057a5.217 5.217 0 0 1-7.18 1.73c-19.662-12.01-44.414-14.73-73.564-8.07a5.222 5.222 0 0 1-6.249-3.93 5.213 5.213 0 0 1 3.926-6.25c31.9-7.291 59.263-4.15 81.337 9.34 2.46 1.51 3.24 4.72 1.73 7.18Zm10.25-22.805c-1.89 3.075-5.91 4.045-8.98 2.155-22.51-13.839-56.823-17.846-83.448-9.764-3.453 1.043-7.1-.903-8.148-4.35-1.04-3.453.907-7.093 4.354-8.143 30.413-9.228 68.222-4.758 94.072 11.127 3.07 1.89 4.04 5.91 2.15 8.976Zm.88-23.744c-26.99-16.031-71.52-17.505-97.289-9.684-4.138 1.255-8.514-1.081-9.768-5.219a7.835 7.835 0 0 1 5.221-9.771c29.581-8.98 78.756-7.245 109.83 11.202a7.823 7.823 0 0 1 2.74 10.733c-2.2 3.722-7.02 4.949-10.73 2.739Z"/>
</svg>
